<svg xmlns="http://www.w3.org/2000/svg" width="900" height="420" font-family="-apple-system,Helvetica,Arial,sans-serif" font-size="12">
<text x="70" y="26" font-size="15" font-weight="600">merge delta 集成边构成（v1–v8）</text>
<line x1="70" y1="350.0" x2="680" y2="350.0" stroke="#e6e6e6"/>
<text x="62" y="354.0" text-anchor="end" fill="#666">0</text>
<line x1="70" y1="290.3" x2="680" y2="290.3" stroke="#e6e6e6"/>
<text x="62" y="294.3" text-anchor="end" fill="#666">44</text>
<line x1="70" y1="230.5" x2="680" y2="230.5" stroke="#e6e6e6"/>
<text x="62" y="234.5" text-anchor="end" fill="#666">88</text>
<line x1="70" y1="170.8" x2="680" y2="170.8" stroke="#e6e6e6"/>
<text x="62" y="174.8" text-anchor="end" fill="#666">132</text>
<line x1="70" y1="111.1" x2="680" y2="111.1" stroke="#e6e6e6"/>
<text x="62" y="115.1" text-anchor="end" fill="#666">176</text>
<line x1="70" y1="51.4" x2="680" y2="51.4" stroke="#e6e6e6"/>
<text x="62" y="55.4" text-anchor="end" fill="#666">220</text>
<rect x="87.4" y="343.2" width="52.3" height="6.8" fill="#4e79a7"/>
<rect x="87.4" y="314.7" width="52.3" height="28.5" fill="#59a14f"/>
<text x="113.6" y="368" text-anchor="middle" font-weight="600">v1</text>
<text x="113.6" y="308.7" text-anchor="middle" fill="#333">26</text>
<rect x="174.6" y="164.0" width="52.3" height="186.0" fill="#4e79a7"/>
<rect x="174.6" y="162.7" width="52.3" height="1.4" fill="#76b7b2"/>
<rect x="174.6" y="79.9" width="52.3" height="82.8" fill="#59a14f"/>
<text x="200.7" y="368" text-anchor="middle" font-weight="600">v2</text>
<text x="200.7" y="73.9" text-anchor="middle" fill="#333">199</text>
<rect x="261.7" y="282.1" width="52.3" height="67.9" fill="#4e79a7"/>
<rect x="261.7" y="218.3" width="52.3" height="63.8" fill="#f28e2b"/>
<rect x="261.7" y="217.0" width="52.3" height="1.4" fill="#e15759"/>
<rect x="261.7" y="158.6" width="52.3" height="58.4" fill="#59a14f"/>
<text x="287.9" y="368" text-anchor="middle" font-weight="600">v3</text>
<text x="287.9" y="152.6" text-anchor="middle" fill="#333">141</text>
<rect x="348.9" y="317.4" width="52.3" height="32.6" fill="#4e79a7"/>
<rect x="348.9" y="241.4" width="52.3" height="76.0" fill="#f28e2b"/>
<rect x="348.9" y="230.5" width="52.3" height="10.9" fill="#e15759"/>
<rect x="348.9" y="191.2" width="52.3" height="39.4" fill="#76b7b2"/>
<rect x="348.9" y="124.7" width="52.3" height="66.5" fill="#59a14f"/>
<text x="375.0" y="368" text-anchor="middle" font-weight="600">v6</text>
<text x="375.0" y="118.7" text-anchor="middle" fill="#333">166</text>
<rect x="436.0" y="320.1" width="52.3" height="29.9" fill="#4e79a7"/>
<rect x="436.0" y="316.1" width="52.3" height="4.1" fill="#e15759"/>
<rect x="436.0" y="255.0" width="52.3" height="61.1" fill="#76b7b2"/>
<rect x="436.0" y="50.0" width="52.3" height="205.0" fill="#59a14f"/>
<text x="462.1" y="368" text-anchor="middle" font-weight="600">v7</text>
<text x="462.1" y="44.0" text-anchor="middle" fill="#333">221</text>
<rect x="523.1" y="324.2" width="52.3" height="25.8" fill="#4e79a7"/>
<rect x="523.1" y="322.9" width="52.3" height="1.4" fill="#f28e2b"/>
<rect x="523.1" y="316.1" width="52.3" height="6.8" fill="#e15759"/>
<rect x="523.1" y="245.5" width="52.3" height="70.6" fill="#76b7b2"/>
<text x="549.3" y="368" text-anchor="middle" font-weight="600">v8</text>
<text x="549.3" y="239.5" text-anchor="middle" fill="#333">77</text>
<rect x="610.3" y="336.4" width="52.3" height="13.6" fill="#4e79a7"/>
<rect x="610.3" y="333.7" width="52.3" height="2.7" fill="#e15759"/>
<rect x="610.3" y="249.5" width="52.3" height="84.2" fill="#76b7b2"/>
<text x="636.4" y="368" text-anchor="middle" font-weight="600">v9</text>
<text x="636.4" y="243.5" text-anchor="middle" fill="#333">74</text>
<rect x="700" y="41" width="11" height="11" fill="#4e79a7"/>
<text x="717" y="50" fill="#333">abduction</text>
<rect x="700" y="53" width="11" height="11" fill="#f28e2b"/>
<text x="717" y="62" fill="#333">conjunction</text>
<rect x="700" y="65" width="11" height="11" fill="#e15759"/>
<text x="717" y="74" fill="#333">contradiction</text>
<rect x="700" y="77" width="11" height="11" fill="#76b7b2"/>
<text x="717" y="86" fill="#333">deduction</text>
<rect x="700" y="89" width="11" height="11" fill="#59a14f"/>
<text x="717" y="98" fill="#333">infer</text>
<line x1="70" y1="350" x2="680" y2="350" stroke="#999"/>
</svg>